<?xml version="1.0" encoding="UTF-8" standalone="no"?>
<!DOCTYPE svg PUBLIC "-//W3C//DTD SVG 1.1//EN" "http://www.w3.org/Graphics/SVG/1.1/DTD/svg11.dtd">
<svg width="100%" height="100%" viewBox="0 0 248 143" version="1.1" xmlns="http://www.w3.org/2000/svg" xmlns:xlink="http://www.w3.org/1999/xlink" xml:space="preserve" xmlns:serif="http://www.serif.com/" style="fill-rule:evenodd;clip-rule:evenodd;stroke-linejoin:round;stroke-miterlimit:2;">
    <g transform="matrix(1,0,0,1,-25703.853837,-20185.732808)">
        <g id="Artboard4" transform="matrix(1.017506,0,0,0.888374,-452.096105,2271.180115)">
            <rect x="25705.944" y="20165.549" width="243.367" height="160.52" style="fill:none;"/>
            <g transform="matrix(2.728545,0,0,3.125159,-24198.075386,-11411.140348)">
                <g transform="matrix(75.894863,0,0,75.894863,18396.009089,10153.512206)">
                </g>
                <path d="M18325.806 10132.869L18325.806 10132.793Q18325.275 10133.400 18324.554 10134.159Q18323.833 10134.918 18322.846 10135.980Q18320.038 10138.940 18317.951 10140.989Q18315.864 10143.038 18314.498 10144.253Q18315.408 10145.164 18316.471 10145.923Q18317.533 10146.681 18318.748 10147.289Q18320.038 10147.896 18321.328 10148.351Q18322.618 10148.807 18324.060 10149.034Q18324.592 10147.820 18324.971 10146.454Q18325.351 10145.088 18325.654 10143.570Q18325.958 10142.052 18326.109 10140.458Q18326.261 10138.864 18326.261 10137.270Q18326.261 10136.815 18326.223 10136.322Q18326.185 10135.828 18326.109 10135.297Q18326.109 10134.766 18326.034 10134.159Q18325.958 10133.552 18325.806 10132.869M18325.502 10130.744L18325.502 10130.668Q18324.971 10128.239 18323.984 10126.228Q18322.998 10124.217 18321.556 10122.775Q18320.114 10121.257 18318.558 10120.498Q18317.002 10119.739 18315.332 10119.739Q18313.663 10119.739 18312.297 10120.422Q18310.930 10121.105 18309.868 10122.547Q18308.805 10123.989 18308.274 10125.772Q18307.743 10127.556 18307.743 10129.833Q18307.743 10130.668 18307.819 10131.540Q18307.895 10132.413 18308.122 10133.248Q18308.274 10134.159 18308.540 10135.032Q18308.805 10135.904 18309.185 10136.739Q18309.868 10138.485 18310.930 10140.079Q18311.993 10141.672 18313.283 10143.190Q18314.953 10141.748 18316.547 10140.268Q18318.141 10138.788 18319.583 10137.195Q18321.100 10135.677 18322.580 10134.045Q18324.060 10132.413 18325.502 10130.744M18349.409 10118.980L18349.409 10118.904Q18348.347 10120.422 18347.436 10121.674Q18346.525 10122.926 18345.766 10124.065Q18345.007 10125.127 18344.248 10126.190Q18343.489 10127.252 18342.730 10128.315Q18343.793 10127.935 18344.894 10127.594Q18345.994 10127.252 18347.057 10126.949Q18348.195 10126.645 18349.371 10126.380Q18350.548 10126.114 18351.762 10125.886Q18351.231 10125.203 18350.813 10124.444Q18350.396 10123.685 18350.092 10122.850Q18349.865 10122.016 18349.713 10121.067Q18349.561 10120.118 18349.409 10118.980M18364.816 10113.060L18364.816 10112.984L18365.727 10113.971Q18364.740 10114.730 18364.019 10115.413Q18363.298 10116.096 18362.843 10116.703Q18362.691 10116.855 18362.577 10117.082Q18362.463 10117.310 18362.311 10117.462Q18362.160 10117.841 18362.046 10118.221Q18361.932 10118.600 18361.932 10118.980Q18361.932 10119.511 18362.122 10119.891Q18362.311 10120.270 18362.615 10120.574Q18362.919 10120.877 18363.374 10120.991Q18363.829 10121.105 18364.436 10121.105Q18365.044 10121.105 18365.841 10120.877Q18366.637 10120.649 18367.624 10120.118Q18368.687 10119.587 18369.635 10118.942Q18370.584 10118.297 18371.495 10117.462Q18372.633 10116.551 18373.506 10115.527Q18374.379 10114.502 18374.910 10113.515Q18375.517 10112.453 18375.821 10111.504Q18376.124 10110.555 18376.124 10109.645Q18376.124 10108.886 18375.859 10108.317Q18375.593 10107.747 18375.062 10107.368Q18374.531 10106.912 18373.734 10106.685Q18372.937 10106.457 18371.874 10106.457Q18368.079 10106.457 18364.588 10107.520Q18361.097 10108.582 18357.909 10110.783Q18354.722 10112.908 18353.128 10115.261Q18351.534 10117.614 18351.534 10120.118Q18351.534 10120.725 18351.648 10121.408Q18351.762 10122.091 18352.066 10122.775Q18352.293 10123.458 18352.711 10124.179Q18353.128 10124.900 18353.659 10125.659L18354.722 10125.583Q18355.936 10125.659 18356.809 10125.772Q18357.682 10125.886 18358.289 10126.114Q18358.896 10126.266 18359.200 10126.569Q18359.503 10126.873 18359.503 10127.252Q18359.503 10127.556 18359.352 10127.784Q18359.200 10128.011 18358.820 10128.163Q18358.517 10128.239 18358.099 10128.315Q18357.682 10128.391 18357.075 10128.391Q18356.543 10128.391 18355.974 10128.315Q18355.405 10128.239 18354.874 10128.163Q18354.342 10128.011 18353.925 10127.822Q18353.508 10127.632 18353.128 10127.328Q18348.726 10128.391 18344.931 10130.440Q18341.137 10132.489 18337.949 10135.525Q18334.837 10138.561 18333.244 10141.445Q18331.650 10144.329 18331.650 10147.061Q18331.650 10148.351 18332.371 10149.452Q18333.092 10150.552 18334.458 10151.387Q18335.824 10152.222 18337.608 10152.677Q18339.391 10153.133 18341.592 10153.133Q18345.615 10153.133 18349.257 10152.108Q18352.900 10151.083 18356.164 10149.034Q18359.503 10146.985 18361.135 10144.822Q18362.767 10142.659 18362.767 10140.534Q18362.767 10139.471 18362.387 10138.675Q18362.008 10137.878 18361.173 10137.346Q18360.414 10136.739 18359.352 10136.474Q18358.289 10136.208 18356.923 10136.208Q18355.784 10136.208 18354.608 10136.398Q18353.432 10136.587 18352.293 10136.891Q18351.155 10137.270 18349.978 10137.802Q18348.802 10138.333 18347.664 10139.016Q18345.387 10140.458 18343.034 10142.545Q18340.681 10144.632 18338.253 10147.516L18337.266 10146.985Q18339.012 10144.177 18341.213 10141.938Q18343.414 10139.699 18346.070 10138.029Q18348.726 10136.284 18351.383 10135.449Q18354.039 10134.614 18356.771 10134.614Q18358.517 10134.614 18359.921 10134.994Q18361.325 10135.373 18362.311 10136.208Q18363.374 10136.967 18363.867 10138.029Q18364.361 10139.092 18364.361 10140.458Q18364.361 10143.038 18362.615 10145.467Q18360.869 10147.896 18357.302 10150.173Q18353.811 10152.449 18349.903 10153.512Q18345.994 10154.575 18341.668 10154.575Q18339.088 10154.575 18337.038 10154.081Q18334.989 10153.588 18333.320 10152.753Q18331.726 10151.766 18330.815 10150.438Q18329.904 10149.110 18329.601 10147.440L18325.351 10153.512L18321.252 10153.512L18323.377 10150.324Q18322.011 10150.173 18320.683 10149.717Q18319.355 10149.262 18318.065 10148.731Q18316.850 10148.123 18315.598 10147.327Q18314.346 10146.530 18313.131 10145.543Q18310.323 10147.896 18307.857 10149.603Q18305.390 10151.311 18303.493 10152.374Q18301.520 10153.360 18299.622 10153.854Q18297.725 10154.347 18296.055 10154.347Q18294.765 10154.347 18293.778 10154.005Q18292.792 10153.664 18292.033 10153.057Q18291.198 10152.374 18290.856 10151.463Q18290.515 10150.552 18290.515 10149.414Q18290.515 10148.351 18290.894 10147.402Q18291.274 10146.454 18292.109 10145.619Q18292.640 10145.012 18293.209 10144.632Q18293.778 10144.253 18294.385 10144.025Q18294.689 10143.949 18294.955 10143.911Q18295.220 10143.873 18295.524 10143.873Q18296.055 10143.873 18296.548 10144.025Q18297.042 10144.177 18297.421 10144.480Q18297.725 10144.784 18297.952 10145.239Q18298.180 10145.695 18298.180 10146.150Q18298.180 10146.681 18297.952 10147.137Q18297.725 10147.592 18297.421 10147.972Q18297.042 10148.351 18296.586 10148.579Q18296.131 10148.807 18295.600 10148.807Q18295.372 10148.807 18295.068 10148.731Q18294.765 10148.655 18294.461 10148.579Q18294.158 10148.427 18293.968 10148.389Q18293.778 10148.351 18293.702 10148.351Q18293.323 10148.351 18293.057 10148.465Q18292.792 10148.579 18292.640 10148.807Q18292.412 10149.034 18292.336 10149.376Q18292.260 10149.717 18292.260 10150.173Q18292.260 10150.704 18292.526 10151.197Q18292.792 10151.691 18293.399 10152.070Q18293.930 10152.449 18294.689 10152.677Q18295.448 10152.905 18296.435 10152.905Q18297.877 10152.905 18299.660 10152.336Q18301.444 10151.766 18303.417 10150.704Q18305.314 10149.641 18307.515 10148.010Q18309.716 10146.378 18312.069 10144.253Q18310.475 10142.507 18309.223 10140.610Q18307.971 10138.712 18307.136 10136.815Q18306.377 10134.842 18305.921 10132.907Q18305.466 10130.971 18305.466 10129.074Q18305.466 10126.645 18306.149 10124.596Q18306.832 10122.547 18308.122 10120.953Q18309.413 10119.283 18311.120 10118.486Q18312.828 10117.690 18314.877 10117.690Q18316.774 10117.690 18318.558 10118.486Q18320.341 10119.283 18322.011 10120.877Q18323.681 10122.471 18324.895 10124.520Q18326.109 10126.569 18326.868 10129.226Q18332.712 10122.775 18337.494 10118.145Q18342.275 10113.515 18345.918 10110.631Q18349.561 10107.747 18352.483 10106.305Q18355.405 10104.863 18357.606 10104.863Q18357.834 10104.863 18358.175 10104.901Q18358.517 10104.939 18358.896 10105.015Q18359.048 10105.091 18359.200 10105.091Q18359.352 10105.091 18359.427 10105.091Q18359.200 10105.395 18358.858 10105.888Q18358.517 10106.381 18358.061 10107.064Q18357.758 10107.444 18357.530 10107.747Q18357.302 10108.051 18357.151 10108.279Q18358.972 10107.444 18360.794 10106.837Q18362.615 10106.229 18364.512 10105.774Q18366.334 10105.319 18368.041 10105.091Q18369.749 10104.863 18371.267 10104.863Q18373.013 10104.863 18374.265 10105.129Q18375.517 10105.395 18376.352 10106.002Q18377.187 10106.533 18377.566 10107.406Q18377.946 10108.279 18377.946 10109.341Q18377.946 10110.555 18377.604 10111.884Q18377.263 10113.212 18376.428 10114.502Q18375.669 10115.792 18374.568 10117.007Q18373.468 10118.221 18372.102 10119.283Q18371.039 10120.118 18369.939 10120.763Q18368.838 10121.408 18367.776 10121.940Q18366.637 10122.395 18365.651 10122.623Q18364.664 10122.850 18363.753 10122.850Q18362.919 10122.850 18362.236 10122.623Q18361.552 10122.395 18361.021 10121.940Q18360.566 10121.484 18360.338 10120.839Q18360.110 10120.194 18360.110 10119.435Q18360.110 10118.600 18360.414 10117.803Q18360.718 10117.007 18361.325 10116.172Q18361.932 10115.337 18362.843 10114.578Q18363.753 10113.819 18364.816 10113.060M18356.467 10106.685L18356.467 10106.609Q18354.418 10106.988 18351.572 10108.620Q18348.726 10110.252 18345.083 10113.288Q18341.440 10116.323 18337.038 10120.801Q18332.636 10125.279 18327.476 10131.123Q18327.476 10131.351 18327.514 10131.616Q18327.551 10131.882 18327.551 10132.110Q18327.627 10132.565 18327.665 10132.982Q18327.703 10133.400 18327.703 10133.855Q18327.703 10134.159 18327.741 10134.462Q18327.779 10134.766 18327.779 10134.994Q18327.855 10135.297 18327.855 10135.601Q18327.855 10135.904 18327.855 10136.208Q18327.855 10136.739 18327.855 10137.270Q18327.855 10137.802 18327.779 10138.333Q18327.779 10138.864 18327.741 10139.396Q18327.703 10139.927 18327.627 10140.458Q18327.551 10141.521 18327.400 10142.621Q18327.248 10143.722 18327.096 10144.784Q18329.525 10141.141 18332.485 10137.043Q18335.445 10132.944 18338.784 10128.543Q18342.199 10124.065 18346.639 10118.600Q18351.079 10113.136 18356.467 10106.685" style="fill-rule:nonzero;stroke:black;stroke-width:1.47px;"/>
            </g>
        </g>
    </g>
</svg>
