<?xml version="1.0" encoding="UTF-8" standalone="no"?>
<!DOCTYPE svg PUBLIC "-//W3C//DTD SVG 1.1//EN" "http://www.w3.org/Graphics/SVG/1.1/DTD/svg11.dtd">
<svg width="100%" height="100%" viewBox="0 0 1580 696" version="1.1" xmlns="http://www.w3.org/2000/svg" xmlns:xlink="http://www.w3.org/1999/xlink" xml:space="preserve" xmlns:serif="http://www.serif.com/" style="fill-rule:evenodd;clip-rule:evenodd;stroke-linejoin:round;stroke-miterlimit:2;">
    <g id="Artboard5" transform="matrix(1,0,0,1,-0.809376,0.000034)">
        <rect x="0.809" y="-0" width="1579.808" height="695" style="fill:none;"/>
        <clipPath id="_clip1">
            <rect x="0.809" y="-0" width="1579.808" height="695"/>
        </clipPath>
        <g clip-path="url(#_clip1)">
            <g transform="matrix(1,0,0,1,-4175.190624,-2115.000034)">
                <g id="Artboard4" transform="matrix(1,0,0,1,-0.809429,-0.043034)">
                    <rect x="4176.809" y="2116.043" width="1580.618" height="694.92" style="fill:none;"/>
                    <g>
                        <clipPath id="_clip2">
                            <rect x="4176.809" y="2116.043" width="1580.618" height="694.92"/>
                        </clipPath>
                        <g clip-path="url(#_clip2)">
                            <g transform="matrix(1.021018,0,0,1.021097,4763.359892,-88.375949)">
                                <g transform="matrix(1,0,0,1,-592.478,2822.661)">
                                    <g transform="matrix(989.189,0,0,989.189,1346.286229,0)">
                                    </g>
                                    <text x="0px" y="0px" style="font-family:'English157BT-Regular', 'English 157';font-weight:500;font-size:989.189px;">CF</text>
                                </g>
                            </g>
                        </g>
                    </g>
                </g>
            </g>
            <g transform="matrix(0.848071,0,0,0.848071,-343.095676,-13.694667)">
                <path d="M1922.942,649.096C1935.322,649.096 1947.408,652.273 1959.202,658.625C1970.995,664.978 1980.182,674.068 1986.763,685.894C1993.344,697.719 1996.634,710.05 1996.634,722.886C1996.634,735.592 1993.393,747.809 1986.91,759.537C1980.426,771.265 1971.337,780.371 1959.641,786.854C1947.946,793.337 1935.712,796.579 1922.942,796.579C1910.171,796.579 1897.938,793.337 1886.242,786.854C1874.546,780.371 1865.441,771.265 1858.925,759.537C1852.409,747.809 1849.152,735.592 1849.152,722.886C1849.152,710.05 1852.458,697.719 1859.072,685.894C1865.685,674.068 1874.889,664.978 1886.682,658.625C1898.475,652.273 1910.562,649.096 1922.942,649.096ZM1922.942,661.313C1912.582,661.313 1902.499,663.968 1892.693,669.279C1882.887,674.589 1875.214,682.18 1869.676,692.051C1864.138,701.922 1861.368,712.201 1861.368,722.886C1861.368,733.507 1864.089,743.688 1869.529,753.429C1874.97,763.17 1882.577,770.76 1892.351,776.201C1902.124,781.642 1912.321,784.362 1922.942,784.362C1933.562,784.362 1943.759,781.642 1953.533,776.201C1963.306,770.76 1970.897,763.17 1976.305,753.429C1981.713,743.688 1984.417,733.507 1984.417,722.886C1984.417,712.201 1981.664,701.922 1976.159,692.051C1970.653,682.18 1962.981,674.589 1953.142,669.279C1943.303,663.968 1933.237,661.313 1922.942,661.313ZM1891.77,762.463L1891.77,683.102L1919.039,683.102C1928.356,683.102 1935.1,683.835 1939.27,685.301C1943.44,686.767 1946.763,689.324 1949.239,692.973C1951.715,696.622 1952.953,700.499 1952.953,704.604C1952.953,710.402 1950.884,715.452 1946.747,719.752C1942.609,724.053 1937.12,726.464 1930.278,726.985C1933.08,728.158 1935.328,729.559 1937.022,731.188C1940.215,734.315 1944.124,739.56 1948.75,746.923L1958.426,762.463L1942.788,762.463L1935.751,749.953C1930.213,740.114 1925.75,733.957 1922.362,731.481C1920.016,729.656 1916.595,728.744 1912.099,728.744L1904.574,728.744L1904.574,762.463L1891.77,762.463ZM1904.574,717.798L1920.114,717.798C1927.542,717.798 1932.608,716.69 1935.312,714.475C1938.016,712.259 1939.368,709.327 1939.368,705.679C1939.368,703.333 1938.716,701.232 1937.413,699.375C1936.11,697.518 1934.302,696.133 1931.989,695.221C1929.676,694.309 1925.391,693.853 1919.136,693.853L1904.574,693.853L1904.574,717.798Z" style="fill-rule:nonzero;stroke:black;stroke-width:4.13px;"/>
            </g>
        </g>
    </g>
</svg>
