<?xml version="1.0" encoding="UTF-8" standalone="no"?>
<!DOCTYPE svg PUBLIC "-//W3C//DTD SVG 1.1//EN" "http://www.w3.org/Graphics/SVG/1.1/DTD/svg11.dtd">
<svg width="100%" height="100%" viewBox="0 0 1580 696" version="1.1" xmlns="http://www.w3.org/2000/svg" xmlns:xlink="http://www.w3.org/1999/xlink" xml:space="preserve" xmlns:serif="http://www.serif.com/" style="fill-rule:evenodd;clip-rule:evenodd;stroke-linejoin:round;stroke-miterlimit:2;">
    <g id="Artboard5" transform="matrix(1,0,0,1,-0.809376,0.000034)">
        <rect x="0.809" y="-0" width="1579.808" height="695" style="fill:none;"/>
        <clipPath id="_clip1">
            <rect x="0.809" y="-0" width="1579.808" height="695"/>
        </clipPath>
        <g clip-path="url(#_clip1)">
            <g transform="matrix(1,0,0,1,-4175.190624,-2115.000034)">
                <g id="Artboard4" transform="matrix(1,0,0,1,-0.809429,-0.043034)">
                    <rect x="4176.809" y="2116.043" width="1580.618" height="694.92" style="fill:none;"/>
                    <g>
                        <clipPath id="_clip2">
                            <rect x="4176.809" y="2116.043" width="1580.618" height="694.92"/>
                        </clipPath>
                        <g clip-path="url(#_clip2)">
                            <g transform="matrix(1.021018,0,0,1.021097,4763.359892,-88.375949)">
                                <g transform="matrix(1,0,0,1,-592.478,2822.661)">
                                    <g transform="matrix(989.189,0,0,989.189,1346.286229,0)">
                                    </g>
                                    <path d="M267.081-337.313L267.081-338.303Q301.703-339.292 337.313-344.732Q372.924-350.173 409.524-359.076Q445.135-368.967 480.251-381.827Q515.367-394.686 549.989-410.513Q590.546-429.308 623.684-450.576Q656.821-471.843 681.551-496.573Q707.270-520.313 720.624-540.592Q733.978-560.870 733.978-576.697Q733.978-587.578 730.516-594.997Q727.054-602.416 721.119-606.373Q715.184-611.319 705.786-613.792Q696.389-616.265 682.540-616.265Q644.951-616.265 597.470-597.965Q549.989-579.665 494.594-542.076Q439.200-505.476 382.322-454.038Q325.443-402.600 267.081-337.313M458.984-640.994L458.984-641.984L453.049-627.146Q434.254-631.103 416.943-634.070Q399.632-637.038 383.805-638.027Q367.978-640.005 354.130-640.994Q340.281-641.984 326.432-641.984Q268.070-641.984 218.116-627.640Q168.162-613.297 125.627-584.611Q84.081-555.924 62.814-523.281Q41.546-490.638 41.546-454.038Q41.546-430.297 51.932-411.008Q62.319-391.719 82.103-376.881Q101.886-361.054 130.078-352.151Q158.270-343.249 193.881-340.281Q258.178-407.546 323.959-460.962Q389.740-514.378 456.016-553.946Q523.281-594.503 579.665-614.286Q636.049-634.070 681.551-634.070Q700.346-634.070 713.700-630.608Q727.054-627.146 736.946-621.211Q746.838-614.286 751.784-605.384Q756.730-596.481 756.730-583.622Q756.730-562.849 743.870-540.097Q731.011-517.346 705.292-491.627Q680.562-465.908 646.435-442.167Q612.308-418.427 568.784-396.665Q530.205-377.870 490.638-363.527Q451.070-349.184 409.524-338.303Q367.978-328.411 327.422-322.970Q286.865-317.530 247.297-315.551Q212.676-277.962 187.451-244.824Q162.227-211.686 146.400-183.989Q130.573-156.292 122.659-131.068Q114.746-105.843 114.746-83.092Q114.746-64.297 121.670-50.449Q128.595-36.600 142.443-25.719Q156.292-14.838 176.076-9.397Q195.859-3.957 220.589-3.957Q242.351-3.957 265.103-8.408Q287.854-12.859 311.595-19.784Q335.335-27.697 357.097-38.578Q378.859-49.459 398.643-62.319Q421.395-77.157 437.716-92.984Q454.038-108.811 465.908-124.638Q478.767-141.454 484.703-156.786Q490.638-172.119 490.638-186.957Q490.638-199.816 485.692-210.203Q480.746-220.589 470.854-228.503Q460.962-236.416 448.597-240.373Q436.232-244.330 419.416-244.330Q388.751-244.330 357.592-230.976Q326.432-217.622 294.778-191.903Q264.113-166.184 237.900-132.057Q211.686-97.930 189.924-54.405L174.097-58.362Q192.892-103.865 218.611-141.949Q244.330-180.032 277.962-207.730Q311.595-236.416 346.216-250.265Q380.838-264.113 417.438-264.113Q439.200-264.113 456.016-258.673Q472.832-253.232 485.692-242.351Q498.551-232.459 504.981-218.116Q511.411-203.773 511.411-184.978Q511.411-172.119 506.959-157.281Q502.508-142.443 493.605-127.605Q485.692-113.757 473.327-99.908Q460.962-86.059 445.135-72.211Q420.405-51.438 393.697-35.611Q366.989-19.784 337.313-7.914Q308.627 1.978 280.435 7.914Q252.243 13.849 225.535 13.849Q188.935 13.849 161.238 6.430Q133.541-0.989 113.757-16.816Q94.962-33.632 85.565-56.384Q76.168-79.135 76.168-108.811Q76.168-131.562 82.103-155.797Q88.038-180.032 100.897-206.741Q113.757-233.449 132.057-261.640Q150.357-289.832 174.097-320.497Q137.497-326.432 108.316-337.808Q79.135-349.184 59.351-366.989Q38.578-384.795 28.686-407.051Q18.795-429.308 18.795-456.016Q18.795-499.540 39.568-536.140Q60.341-572.740 101.886-602.416Q143.432-632.092 196.849-646.930Q250.265-661.767 314.562-661.767Q330.389-661.767 347.205-660.778Q364.022-659.789 381.827-656.821Q399.632-654.843 418.922-650.886Q438.211-646.930 458.984-640.994M1330.459-554.935L1330.459-555.924L1339.362-542.076Q1316.611-522.292 1293.859-499.540Q1271.108-476.789 1248.357-450.081Q1225.605-422.384 1203.843-390.730Q1182.081-359.076 1160.319-322.476Q1168.232-323.465 1174.662-324.454Q1181.092-325.443 1187.027-326.432Q1192.962-327.422 1198.897-328.905Q1204.832-330.389 1209.778-331.378Q1215.713-338.303 1221.648-344.732Q1227.584-351.162 1234.508-357.097Q1240.443-363.032 1246.378-368.473Q1252.313-373.913 1258.248-377.870Q1271.108-385.784 1280.011-390.235Q1288.913-394.686 1295.838-394.686Q1296.827-394.686 1297.816-394.686Q1298.805-394.686 1299.794-393.697Q1299.794-393.697 1300.784-393.203Q1301.773-392.708 1302.762-392.708Q1303.751-391.719 1304.246-389.740Q1304.740-387.762 1304.740-385.784Q1304.740-378.859 1298.805-370.946Q1292.870-363.032 1281-352.151Q1269.129-342.259 1253.797-332.862Q1238.465-323.465 1220.659-315.551Q1217.692-309.616 1214.229-303.681Q1210.767-297.746 1208.789-292.800Q1205.821-286.865 1203.348-280.930Q1200.875-274.995 1198.897-269.059Q1194.940-258.178 1192.962-247.792Q1190.984-237.405 1190.984-228.503L1154.384-217.622Q1156.362-231.470 1164.770-252.738Q1173.178-274.005 1188.016-301.703L1189.994-306.649Q1185.048-304.670 1179.608-303.186Q1174.167-301.703 1169.221-299.724Q1164.275-298.735 1157.351-297.251Q1150.427-295.768 1141.524-293.789Q1098.989-216.632 1051.013-158.270Q1003.038-99.908 950.611-60.341Q898.184-20.773 840.316-1.978Q782.448 16.816 721.119 16.816Q696.389 16.816 675.616 11.376Q654.843 5.935 639.016-3.957Q622.200-14.838 614.286-29.181Q606.373-43.524 606.373-61.330Q606.373-75.178 610.824-86.059Q615.276-96.941 625.167-106.832Q634.070-115.735 644.951-120.186Q655.832-124.638 667.703-124.638Q675.616-124.638 681.551-122.659Q687.486-120.681 692.432-115.735Q696.389-111.778 698.862-105.843Q701.335-99.908 701.335-92.984Q701.335-86.059 699.851-81.113Q698.367-76.168 694.411-72.211Q690.454-68.254 685.508-66.276Q680.562-64.297 674.627-64.297Q670.670-64.297 666.219-65.781Q661.767-67.265 657.811-68.254Q652.865-70.232 649.403-71.222Q645.940-72.211 644.951-72.211Q640.994-72.211 638.027-70.727Q635.059-69.243 633.081-67.265Q631.103-65.286 629.619-62.319Q628.135-59.351 628.135-55.395Q628.135-42.535 634.565-33.138Q640.994-23.741 653.854-15.827Q666.713-8.903 683.530-4.946Q700.346-0.989 720.130-0.989Q763.654-0.989 805.200-16.322Q846.746-31.654 885.324-61.330Q924.892-91.005 970.889-145.411Q1016.886-199.816 1070.302-277.962Q1057.443-275.984 1044.584-273.016Q1031.724-270.049 1019.854-266.092Q1006.994-262.135 994.135-257.684Q981.275-253.232 968.416-248.286Q943.686-237.405 918.462-223.062Q893.238-208.719 867.519-190.913L858.616-206.741Q884.335-224.546 911.538-239.878Q938.740-255.211 967.427-267.081Q996.113-279.940 1026.778-288.843Q1057.443-297.746 1089.097-304.670Q1117.784-344.238 1146.470-379.849Q1175.157-415.459 1204.832-446.124Q1235.497-477.778 1266.657-504.981Q1297.816-532.184 1330.459-554.935M1558.962-639.016L1558.962-640.005L1565.886-625.167Q1550.059-613.297 1532.748-604.394Q1515.438-595.492 1495.654-590.546Q1476.859-584.611 1455.097-581.643Q1433.335-578.676 1410.584-578.676Q1380.908-578.676 1337.384-583.127Q1293.859-587.578 1235.497-595.492Q1178.124-603.405 1136.084-607.857Q1094.043-612.308 1068.324-612.308Q1010.951-612.308 963.470-597.470Q915.989-582.632 875.432-553.946Q835.865-525.259 816.081-491.132Q796.297-457.005 796.297-419.416Q796.297-399.632 802.727-383.311Q809.157-366.989 822.016-356.108Q834.876-344.238 852.681-338.303Q870.486-332.368 893.238-332.368Q930.827-332.368 967.921-345.722Q1005.016-359.076 1041.616-383.805Q1078.216-409.524 1107.892-443.157Q1137.567-476.789 1159.330-519.324L1178.124-520.313Q1159.330-472.832 1129.654-435.738Q1099.978-398.643 1061.400-369.957Q1023.811-341.270 982.759-326.927Q941.708-312.584 898.184-312.584Q868.508-312.584 845.757-320.003Q823.005-327.422 806.189-342.259Q790.362-356.108 781.954-375.892Q773.546-395.676 773.546-420.405Q773.546-464.919 798.276-504.486Q823.005-544.054 871.476-577.686Q920.935-612.308 981.770-628.630Q1042.605-644.951 1114.816-644.951Q1148.448-644.951 1192.962-641.489Q1237.475-638.027 1292.870-630.113Q1348.265-623.189 1387.338-619.232Q1426.411-615.276 1448.173-615.276Q1464.989-615.276 1479.827-616.759Q1494.665-618.243 1507.524-620.222Q1513.459-622.200 1519.889-624.178Q1526.319-626.157 1533.243-628.135Q1540.167-630.113 1546.597-633.081Q1553.027-636.049 1558.962-639.016" style="fill-rule:nonzero;"/>
                                </g>
                            </g>
                        </g>
                    </g>
                </g>
            </g>
            <g transform="matrix(0.848071,0,0,0.848071,-343.095676,-13.694667)">
                <path d="M1922.942,649.096C1935.322,649.096 1947.408,652.273 1959.202,658.625C1970.995,664.978 1980.182,674.068 1986.763,685.894C1993.344,697.719 1996.634,710.05 1996.634,722.886C1996.634,735.592 1993.393,747.809 1986.91,759.537C1980.426,771.265 1971.337,780.371 1959.641,786.854C1947.946,793.337 1935.712,796.579 1922.942,796.579C1910.171,796.579 1897.938,793.337 1886.242,786.854C1874.546,780.371 1865.441,771.265 1858.925,759.537C1852.409,747.809 1849.152,735.592 1849.152,722.886C1849.152,710.05 1852.458,697.719 1859.072,685.894C1865.685,674.068 1874.889,664.978 1886.682,658.625C1898.475,652.273 1910.562,649.096 1922.942,649.096ZM1922.942,661.313C1912.582,661.313 1902.499,663.968 1892.693,669.279C1882.887,674.589 1875.214,682.18 1869.676,692.051C1864.138,701.922 1861.368,712.201 1861.368,722.886C1861.368,733.507 1864.089,743.688 1869.529,753.429C1874.97,763.17 1882.577,770.76 1892.351,776.201C1902.124,781.642 1912.321,784.362 1922.942,784.362C1933.562,784.362 1943.759,781.642 1953.533,776.201C1963.306,770.76 1970.897,763.17 1976.305,753.429C1981.713,743.688 1984.417,733.507 1984.417,722.886C1984.417,712.201 1981.664,701.922 1976.159,692.051C1970.653,682.18 1962.981,674.589 1953.142,669.279C1943.303,663.968 1933.237,661.313 1922.942,661.313ZM1891.77,762.463L1891.77,683.102L1919.039,683.102C1928.356,683.102 1935.1,683.835 1939.27,685.301C1943.44,686.767 1946.763,689.324 1949.239,692.973C1951.715,696.622 1952.953,700.499 1952.953,704.604C1952.953,710.402 1950.884,715.452 1946.747,719.752C1942.609,724.053 1937.12,726.464 1930.278,726.985C1933.08,728.158 1935.328,729.559 1937.022,731.188C1940.215,734.315 1944.124,739.56 1948.75,746.923L1958.426,762.463L1942.788,762.463L1935.751,749.953C1930.213,740.114 1925.75,733.957 1922.362,731.481C1920.016,729.656 1916.595,728.744 1912.099,728.744L1904.574,728.744L1904.574,762.463L1891.77,762.463ZM1904.574,717.798L1920.114,717.798C1927.542,717.798 1932.608,716.69 1935.312,714.475C1938.016,712.259 1939.368,709.327 1939.368,705.679C1939.368,703.333 1938.716,701.232 1937.413,699.375C1936.11,697.518 1934.302,696.133 1931.989,695.221C1929.676,694.309 1925.391,693.853 1919.136,693.853L1904.574,693.853L1904.574,717.798Z" style="fill-rule:nonzero;stroke:black;stroke-width:4.13px;"/>
            </g>
        </g>
    </g>
</svg>
